# xmcd CD database file
#
# Track frame offsets:
#	150
#	55142
#	103467
#	145605
#
# Disc length: 2358 seconds
#
# Revision: 0
# Processed by: cddbd v1.5.1PL0 Copyright (c) Steve Scherf et al.
# Submitted via: CDex 1.51
#
DISCID=34093404
DTITLE=ジョージ大塚 - Loving You George
DYEAR=1975
DGENRE=Jazz
TTITLE0=Little Island
TTITLE1=Something Everywhere
TTITLE2=Miles Mode
TTITLE3=Loving You
EXTD=YEAR: 1975
EXTT0=
EXTT1=
EXTT2=
EXTT3=
PLAYORDER=
